{"asset":{"version":"2.0","generator":"VECTARY"},"nodes":[{"translation":[-0.0036936136734932318,0.010594976362092268,0.005200000002980234],"scale":[0.001,0.001,0.001],"rotation":[-0.7071067811865475,0,0,0.7071067811865476],"name":"Path","mesh":0}],"materials":[{"pbrMetallicRoughness":{"baseColorFactor":[0.6661169687758508,0.5113978188848795,0.6186857274987796,1],"metallicFactor":1,"roughnessFactor":0.05},"name":"Titanium Glossy","emissiveFactor":[0,0,0],"extensions":{},"alphaMode":"OPAQUE","doubleSided":false}],"meshes":[{"primitives":[{"mode":4,"attributes":{"POSITION":1,"NORMAL":2,"TEXCOORD_0":3},"material":0,"indices":0}]}],"accessors":[{"bufferView":0,"byteOffset":0,"componentType":5125,"count":168078,"type":"SCALAR"},{"bufferView":1,"byteOffset":0,"componentType":5126,"count":105900,"max":[158.67181396484375,5,209.837158203125],"min":[-158.67181396484375,-5,0],"type":"VEC3"},{"bufferView":2,"byteOffset":0,"componentType":5126,"count":105900,"type":"VEC3"},{"bufferView":3,"byteOffset":0,"componentType":5126,"count":105900,"type":"VEC2"}],"bufferViews":[{"buffer":0,"byteOffset":0,"byteLength":672312,"target":34963},{"buffer":0,"byteOffset":672312,"byteLength":1270800,"target":34962},{"buffer":0,"byteOffset":1943112,"byteLength":1270800,"target":34962},{"buffer":0,"byteOffset":3213912,"byteLength":847200,"target":34962}],"scene":0,"scenes":[{"nodes":[0],"name":"noodle"}],"extensionsUsed":["KHR_texture_transform"],"buffers":[{"byteLength":4061112,"uri":"noodle.bin"}]}