{"asset":{"version":"2.0","generator":"VECTARY"},"nodes":[{"translation":[-0.04694488869797374,-2.2737367544323206e-16,1.2909150177526225],"scale":[0.001,0.001,0.001],"rotation":[-0.7071067811865475,0,0,0.7071067811865476],"name":"Abstract Layers Cube"},{"translation":[0,0.35389770378154295,1.7053025658242405e-16],"scale":[0.001,0.0010000000000000002,0.0010000000000000002],"rotation":[0,0,0,1],"name":"Path","mesh":0},{"translation":[0,0.35389770378154295,0.0010000000000001705],"scale":[0.001,0.0010000000000000002,0.0010000000000000002],"rotation":[0,0,0,1],"name":"Path","mesh":1},{"translation":[0,0.35389770378154295,0.0020000000000001705],"scale":[0.001,0.0010000000000000002,0.0010000000000000002],"rotation":[0,0,0,1],"name":"Path","mesh":2},{"translation":[0,0.35389770378154295,0.0030000000000001705],"scale":[0.001,0.0010000000000000002,0.0010000000000000002],"rotation":[0,0,0,1],"name":"Path","mesh":3},{"translation":[0,0.35389770378154295,0.004000000000000171],"scale":[0.001,0.0010000000000000002,0.0010000000000000002],"rotation":[0,0,0,1],"name":"Circle","mesh":4},{"translation":[0,0.35389770378154295,0.005000000000000171],"scale":[0.001,0.0010000000000000002,0.0010000000000000002],"rotation":[0,0,0,1],"name":"Path","mesh":5}],"materials":[{"pbrMetallicRoughness":{"baseColorFactor":[0.5859729839496614,0.36360389792055325,0.5234431552143247,1],"metallicFactor":1,"roughnessFactor":0.05},"name":"Chrome Glossy 5","emissiveFactor":[0,0,0],"extensions":{},"alphaMode":"OPAQUE","doubleSided":false},{"pbrMetallicRoughness":{"baseColorFactor":[0.5859729839496614,0.36360389792055325,0.5234431552143247,1],"metallicFactor":1,"roughnessFactor":0.05},"name":"Chrome Glossy 3","emissiveFactor":[0,0,0],"extensions":{},"alphaMode":"OPAQUE","doubleSided":false},{"pbrMetallicRoughness":{"baseColorFactor":[0.5859729839496614,0.36360389792055325,0.5234431552143247,1],"metallicFactor":1,"roughnessFactor":0.05},"name":"Chrome Glossy 4","emissiveFactor":[0,0,0],"extensions":{},"alphaMode":"OPAQUE","doubleSided":false},{"pbrMetallicRoughness":{"baseColorFactor":[0.5859729839496614,0.36360389792055325,0.5234431552143247,1],"metallicFactor":1,"roughnessFactor":0.05},"name":"Chrome Glossy 2","emissiveFactor":[0,0,0],"extensions":{},"alphaMode":"OPAQUE","doubleSided":false},{"pbrMetallicRoughness":{"baseColorFactor":[0.5859729839496614,0.36360389792055325,0.5234431552143247,1],"metallicFactor":1,"roughnessFactor":0.05},"name":"Chrome Glossy","emissiveFactor":[0,0,0],"extensions":{},"alphaMode":"OPAQUE","doubleSided":false},{"pbrMetallicRoughness":{"baseColorFactor":[0.5859729839496614,0.36360389792055325,0.5234431552143247,1],"metallicFactor":1,"roughnessFactor":0.05},"name":"Chrome Glossy 1","emissiveFactor":[0,0,0],"extensions":{},"alphaMode":"OPAQUE","doubleSided":false}],"meshes":[{"primitives":[{"mode":4,"attributes":{"POSITION":1,"NORMAL":2},"material":0,"indices":0}]},{"primitives":[{"mode":4,"attributes":{"POSITION":4,"NORMAL":5},"material":1,"indices":3}]},{"primitives":[{"mode":4,"attributes":{"POSITION":7,"NORMAL":8},"material":2,"indices":6}]},{"primitives":[{"mode":4,"attributes":{"POSITION":10,"NORMAL":11},"material":3,"indices":9}]},{"primitives":[{"mode":4,"attributes":{"POSITION":13,"NORMAL":14},"material":4,"indices":12}]},{"primitives":[{"mode":4,"attributes":{"POSITION":16,"NORMAL":17},"material":5,"indices":15}]}],"accessors":[{"bufferView":0,"byteOffset":0,"componentType":5125,"count":2880,"type":"SCALAR"},{"bufferView":1,"byteOffset":0,"componentType":5126,"count":960,"max":[1355,355.5,100.19998168945312],"min":[632,-355.5,0.20001350343227386],"type":"VEC3"},{"bufferView":2,"byteOffset":0,"componentType":5126,"count":960,"type":"VEC3"},{"bufferView":3,"byteOffset":0,"componentType":5125,"count":96,"type":"SCALAR"},{"bufferView":4,"byteOffset":0,"componentType":5126,"count":50,"max":[368,334.5,100.19998168945312],"min":[-146,-351.5,0.20001350343227386],"type":"VEC3"},{"bufferView":5,"byteOffset":0,"componentType":5126,"count":50,"type":"VEC3"},{"bufferView":6,"byteOffset":0,"componentType":5125,"count":60,"type":"SCALAR"},{"bufferView":7,"byteOffset":0,"componentType":5126,"count":36,"max":[690,334.5,100.19998168945312],"min":[379,-351.5,0.20001350343227386],"type":"VEC3"},{"bufferView":8,"byteOffset":0,"componentType":5126,"count":36,"type":"VEC3"},{"bufferView":9,"byteOffset":0,"componentType":5125,"count":132,"type":"SCALAR"},{"bufferView":10,"byteOffset":0,"componentType":5126,"count":66,"max":[-37,334.5,100.19998168945312],"min":[-548,-351.5,0.20001350343227386],"type":"VEC3"},{"bufferView":11,"byteOffset":0,"componentType":5126,"count":66,"type":"VEC3"},{"bufferView":12,"byteOffset":0,"componentType":5125,"count":708,"type":"SCALAR"},{"bufferView":13,"byteOffset":0,"componentType":5126,"count":240,"max":[-821,351.5,100.19998168945312],"min":[-1011,161.49998474121094,0.20001350343227386],"type":"VEC3"},{"bufferView":14,"byteOffset":0,"componentType":5126,"count":240,"type":"VEC3"},{"bufferView":15,"byteOffset":0,"componentType":5125,"count":144,"type":"SCALAR"},{"bufferView":16,"byteOffset":0,"componentType":5126,"count":78,"max":[-477,334.5,100.19998168945312],"min":[-1355,-351.5,0.20001350343227386],"type":"VEC3"},{"bufferView":17,"byteOffset":0,"componentType":5126,"count":78,"type":"VEC3"}],"bufferViews":[{"buffer":0,"byteOffset":0,"byteLength":11520,"target":34963},{"buffer":0,"byteOffset":11520,"byteLength":11520,"target":34962},{"buffer":0,"byteOffset":23040,"byteLength":11520,"target":34962},{"buffer":0,"byteOffset":34560,"byteLength":384,"target":34963},{"buffer":0,"byteOffset":34944,"byteLength":600,"target":34962},{"buffer":0,"byteOffset":35544,"byteLength":600,"target":34962},{"buffer":0,"byteOffset":36144,"byteLength":240,"target":34963},{"buffer":0,"byteOffset":36384,"byteLength":432,"target":34962},{"buffer":0,"byteOffset":36816,"byteLength":432,"target":34962},{"buffer":0,"byteOffset":37248,"byteLength":528,"target":34963},{"buffer":0,"byteOffset":37776,"byteLength":792,"target":34962},{"buffer":0,"byteOffset":38568,"byteLength":792,"target":34962},{"buffer":0,"byteOffset":39360,"byteLength":2832,"target":34963},{"buffer":0,"byteOffset":42192,"byteLength":2880,"target":34962},{"buffer":0,"byteOffset":45072,"byteLength":2880,"target":34962},{"buffer":0,"byteOffset":47952,"byteLength":576,"target":34963},{"buffer":0,"byteOffset":48528,"byteLength":936,"target":34962},{"buffer":0,"byteOffset":49464,"byteLength":936,"target":34962}],"scene":0,"scenes":[{"nodes":[0,1,2,3,4,5,6],"name":"Waylo"}],"extensionsUsed":["KHR_texture_transform"],"buffers":[{"byteLength":50400,"uri":"Waylo.bin"}]}